<svg width="1852" height="200" viewBox="0 0 1852 200" fill="none" xmlns="http://www.w3.org/2000/svg">
<path opacity="0.6" fill-rule="evenodd" clip-rule="evenodd" d="M409 200C468.296 192.496 541.068 129.437 608.288 92.0915C660.9 62.8437 710.277 64.4372 758.604 95.6552C993.604 247.472 1021.55 26.2368 1296.34 1.88532C1361.72 -3.9092 1416.22 4.1162 1463.61 19.6165C1559.18 50.8635 1606.91 103.956 1682.54 145.749C1726.21 169.897 1781.24 191.801 1851.75 200H409Z" fill="#CE7650"/>
<path fill-rule="evenodd" clip-rule="evenodd" d="M1821 200C1746.16 192.496 1654.31 129.437 1569.46 92.0915C1503.06 62.8437 1440.74 64.4372 1379.74 95.6552C1083.13 247.472 1047.85 26.2368 701.028 1.88532C618.498 -3.9092 549.712 4.1162 489.906 19.6165C369.275 50.8635 309.028 103.956 213.571 145.749C158.46 169.897 88.9935 191.801 0 200H1821Z" fill="#6B3016"/>
</svg>
