<svg width="2132" height="308" viewBox="0 0 2132 308" fill="none" xmlns="http://www.w3.org/2000/svg">
<path opacity="0.6" fill-rule="evenodd" clip-rule="evenodd" d="M0 307.546C87.6235 296.458 195.162 203.273 294.495 148.087C372.241 104.866 445.207 107.221 516.62 153.353C863.888 377.697 905.191 50.7709 1311.25 14.786C1407.87 6.22325 1488.41 18.0826 1558.42 40.988C1699.66 87.1626 1770.19 165.619 1881.95 227.378C1946.48 263.063 2027.81 295.43 2132 307.546H0Z" fill="#CE7650"/>
<path fill-rule="evenodd" clip-rule="evenodd" d="M2132 308C2044.38 296.444 1936.84 199.333 1837.51 141.821C1759.76 96.7792 1686.79 99.2333 1615.38 147.309C1268.11 381.106 1226.81 40.4047 820.754 2.90339C724.129 -6.02017 643.594 6.33894 573.575 30.2095C432.342 78.3298 361.805 160.092 250.045 224.453C185.523 261.642 104.192 295.373 -3.32278e-05 308H2132Z" fill="#6B3016"/>
</svg>
