<svg width="254" height="254" viewBox="0 0 254 254" fill="none" xmlns="http://www.w3.org/2000/svg">
<rect width="254" height="254" rx="20" fill="#384044"/>
<path d="M124.178 201.296L131.122 193.178L136.998 187.464L140.495 185.083L144.878 181.875L144.984 177.252L142.372 173.932L139.795 175.033L140.816 171.723L141.521 168.349L141.523 165.226L139.652 164.2L137.698 165.115L135.756 164.862L135.149 162.686L134.665 157.529L133.69 155.854L130.173 154.341L128.049 155.436L122.554 154.363L122.899 146.816L121.36 143.745L122.988 142.607L122.487 139.474L123.913 137.074L124.837 132.774L123.608 129.393L120.764 127.872L120.207 125.735L120.97 122.618L110.99 122.395L108.989 116.138L110.506 116.049L110.439 113.741L109.423 112.181L109.195 109.097L106.17 107.519L102.895 107.573L100.742 106.028L97.2231 104.976L95.1734 102.995L89.3435 102.12L83.6918 97.382L84.1095 93.8469L83.469 91.8231L84.0241 87.887L77.212 88.7745L74.4697 90.7481L69.9172 92.8796L68.7568 94.4726L66.0757 94.5877L62.2046 94.1421L59.2674 95.0481L56.9001 94.4429L57.2473 86.4592L52.977 89.5524L48.3817 89.4169L46.4137 86.617L42.9584 86.3125L44.0594 84.0623L41.1668 80.8799L39 76.177L40.3721 75.2227L40.3684 73.0225L43.5135 71.5187L42.9956 68.704L44.3231 66.8956L44.7018 64.4708L50.6543 60.9394L54.9209 59.9405L55.619 59.1607L60.3108 59.4039L62.6502 45.206L62.7727 42.9632L61.9577 40.0018L59.648 38.1154L59.674 34.3576L62.6075 33.5054L63.6472 34.0419L63.8236 32.0609L60.7731 31.5261L60.71 28.2881L70.8511 28.4051L72.5741 26.6208L74.0204 28.2621L75.0342 31.3126L76.0182 30.6758L78.883 33.4107L82.9305 33.0765L83.9387 31.4928L87.8098 30.2859L89.9543 29.4374L90.5577 27.2465L94.2766 25.7742L93.9962 24.6862L89.5848 24.2424L88.8626 20.9803L89.0724 17.5084L86.7423 16.1641L87.7189 15.687L91.5733 16.3498L95.7118 17.6458L97.2138 16.4204L100.959 15.6164L106.781 13.6743L108.684 11.6951L107.995 10.2302L110.703 10L111.913 11.1957L111.235 13.4757L113.025 14.2611L114.219 16.671L112.776 18.4961L111.946 22.9038L113.28 25.5217L113.656 27.9168L116.859 30.3435L119.414 30.5997L119.99 29.5878L121.636 29.3632L123.991 28.4552L125.684 27.0794L128.562 27.5195L129.83 27.3338L132.661 27.7571L133.129 26.6989L132.257 25.6702L132.776 24.1719L134.876 24.6324L137.336 24.1032L140.318 25.2005L142.591 26.2681L144.202 24.8645L145.366 25.0798L146.078 26.5373L148.569 26.1678L150.565 24.2016L152.162 20.3899L155.242 15.6461L157.015 15.401L158.304 18.2677L161.222 27.3227L164.007 28.1767L164.147 31.7471L160.233 36.0044L161.852 37.564L171.053 38.3754L171.241 43.5592L175.196 40.1652L181.746 42.0237L190.392 45.1838L192.932 48.2138L192.08 51.0787L198.133 49.4838L208.265 52.2224L216.042 52.02L223.738 56.307L230.385 62.1165L234.395 63.613L238.848 63.8228L240.734 65.4604L242.501 72.0812L243.365 75.2357L241.293 83.8729L238.643 87.2947L231.306 94.61L227.99 100.579L224.135 105.174L222.834 105.278L221.38 109.192L221.75 119.214L220.298 127.529L219.744 131.106L218.099 133.255L217.177 140.568L211.898 147.768L211.012 153.511L206.8 155.932L205.58 159.294L199.924 159.281L191.735 161.444L188.068 163.956L182.238 165.611L176.111 170.141L171.705 175.824L170.948 180.135L171.813 183.342L170.84 189.25L169.659 192.124L166.02 195.38L160.244 205.919L155.667 210.733L152.127 213.59L149.754 219.446L146.31 223L144.869 219.482L147.164 216.552L144.152 212.378L140.069 209.008L134.711 205.13L132.778 205.306L127.555 200.657L124.178 201.296Z" stroke="#627279" stroke-width="2"/>
</svg>
