<svg width="254" height="254" viewBox="0 0 254 254" fill="none" xmlns="http://www.w3.org/2000/svg">
<g clip-path="url(#clip0_153_3598)">
<rect width="254" height="254" rx="20" fill="#384044"/>
<path opacity="0.92" d="M59.577 107.895L61.4147 105.119L61.3228 101.436L55.7037 97.6596L52.3243 90.7274L50.258 86.2553L47.2321 83.398L45.0055 80.7706L43.2515 77.4054L39.9334 79.5188L36.7178 83.1187L33.7816 78.8799L31.4736 76.0085L28.2545 74.1744L25 73.9776L25.0177 32.215L25.0401 -0.374729L31.2049 1.9073L36.4078 6.3865L39.8544 7.23166L42.7553 3.37011L46.7583 0.429179L51.6677 1.58434L56.6184 -2.60135L62.0276 -5.01542L64.2979 -1.01595L66.7638 -3.26027L67.5017 -7.86323L69.7861 -6.8118L75.3745 1.81772L79.7747 -4.67123L80.2214 2.57801L84.2822 1.03267L85.5304 -1.74559L89.5334 -1.19277L94.5879 2.7831L102.323 6.19084L106.871 7.7503L110.109 7.16094L114.567 11.7604L109.917 16.1641L115.891 18.0371L124.812 17.0081L127.627 15.4734L131.15 20.6869L134.745 16.2961L131.371 12.5395L133.506 9.45828L137.529 9.03983L140.173 8.12867L142.841 10.2975L146.162 15.1469L149.853 14.442L155.692 18.3943L160.823 17.0116L165.644 17.2215L165.263 11.7144L168.201 10.1408L173.323 13.1854L173.303 21.4413L175.407 14.5057L178.065 14.7437L179.559 5.65803L176.018 -0.124838L172.162 -4.00524L172.427 -15.0182L176.334 -22.5951L180.693 -20.8953L184.036 -16.2936L188.526 -4.99419L185.593 -0.262755L191.739 1.65388L191.725 11.0732L196.142 3.89466L200.093 9.80955L199.109 16.4176L202.305 22.2476L205.757 15.9956L208.167 8.26895L208.348 -2.00257L213.045 -1.26704L217.931 0.135665L222.366 4.79521L222.566 9.35102L220.107 14.1332L222.437 18.8245L222.016 22.9961L215.545 28.8473L210.949 30.1156L207.532 27.632L206.547 31.7576L203.36 38.5059L202.396 41.9207L198.563 47.0977L193.832 47.5975L191.223 50.7589L191.004 55.5304L187.159 56.4368L183.114 62.215L179.53 69.9946L178.249 75.2789L178.066 82.8358L182.922 83.899L184.411 89.7809L185.956 94.4334L190.581 93.231L196.722 95.8584L200.026 98.1393L202.39 100.944L206.531 102.562L210.033 105.016L215.491 105.35L219.086 105.908L218.546 110.852L219.574 116.462L221.968 122.553L226.886 127.602L229.431 125.883L231.219 120.371L229.493 111.646L227.161 108.665L232.453 105.977L236.198 101.897L238.029 97.7668L237.759 93.7332L235.515 88.4996L231.5 83.7587L235.401 76.9798L233.96 70.9494L232.856 60.1322L235.157 58.4855L240.823 60.4257L244.221 61.1152L246.958 59.2493L250.036 61.6527L254.106 65.7029L255.109 68.3739L261.003 68.8902L260.904 74.5446L262.003 82.7839L265.021 83.7823L267.416 87.5012L272.202 83.9968L275.364 76.862L277.55 73.7843L280.124 79.6579L284.428 87.783L288.083 95.1618L286.755 98.9302L291.15 102.261L294.122 105.588L299.392 107.078L301.514 108.902L302.823 113.673L305.398 114.413L306.725 116.502L306.967 122.617L304.568 124.628L302.196 126.49L296.749 128.361L292.591 132.633L287.004 133.467L279.935 132.384L274.975 132.347L271.551 132.705L268.784 136.373L264.57 138.611L259.803 145.181L255.999 149.665L258.806 148.873L264.111 142.447L271.043 138.286L275.988 137.784L278.914 140.246L275.793 143.581L276.84 148.84L277.919 152.459L282.212 154.827L287.673 154.142L290.986 148.767L291.215 152.244L293.35 153.965L289.261 157.049L281.941 159.82L278.663 161.687L274.97 164.98L272.46 164.646L272.334 160.767L278.072 156.923L272.782 157.076L269.109 157.645L266.949 154.992L266.951 148.48L265.483 147.08L263.267 147.906L262.169 146.629L259.647 150.28L258.64 153.99L257.467 156.135L256.063 156.862L255.006 157.097L254.674 158.25L248.584 158.254L243.562 158.285L242.071 159.141L238.688 162.359L238.651 162.287L237.948 161.95L236.9 162.587L235.978 163.59L234.512 162.725L231.718 163.347L229.386 164.013L228.378 164.552L227.389 166.104L228.707 166.532L229.716 166.299L229.874 166.247L230.167 167.602M59.577 107.895L59.6466 110.823L63.6449 114.888L64.2248 119.321L68.4529 121.629L67.9826 124.918L69.8238 129.583L75.8094 131.734L78.1704 133.959L84.5686 138.941L85.0118 138.954H94.3981H104.21H107.458H117.532H127.281H137.197H147.118H158.349L169.657 138.951L176.497 138.954L176.506 137.016L177.625 136.992L178.212 139.756L179.24 140.602L181.548 140.909L184.923 141.701L188.129 143.237L190.806 142.594L194.871 143.878L196.213 141.922L198.088 141.141L198.822 139.924L199.567 139.271L202.64 140.28L204.918 140.401L205.707 141.068L206.813 143.875L210.522 144.615L209.939 146.008L211.246 147.436L210.683 149.275L212.07 149.88L211.378 151.497L212.265 151.644L212.886 150.941L213.534 151.999L216.013 152.59L218.526 152.639L221.205 153.125L224.162 154.043L225.24 155.524L227.381 159.104L226.316 160.635L223.63 159.998L221.962 157.121L222.381 160.051L220.805 162.609L220.978 164.776L220.706 166.042L218.566 167.535L217.013 170L216.285 171.557L218.099 171.836L220.552 170.421L221.996 169.172L222.978 168.968L224.796 169.419L225.675 168.722L227.288 168.155L230.167 167.602M59.577 107.895L61.4147 105.12M230.167 167.602V167.605M165.281 -108.483L165.02 -115.439L169.298 -114.757L171.225 -113.631L175.174 -107.826L174.279 -101.968L169.389 -98.7014L166.697 -102.383L165.281 -108.483ZM180.858 -93.5798L181.252 -95.3361L178.932 -98.2216L172.277 -98.4503L173.159 -94.1173L179.352 -93.1425L180.858 -93.5798ZM223.703 -38.231L227.339 -32.2159L228.297 -31.5393L231.914 -33.0422L235.475 -32.8053L238.988 -32.48L238.695 -35.5954L232.996 -41.9381L225.432 -43.2076L223.842 -42.4226L223.703 -38.231ZM146.584 -112.138L143.392 -107.201L150.75 -106.593L156.19 -101.362L161.587 -99.596L160.3 -106.291L157.772 -114.219L148.834 -120.529L142.347 -122.939L142.587 -116.235L146.584 -112.138ZM177.11 -124.205L183.153 -124.341L180.541 -119.624L180.491 -113.38L184.042 -106.595L190.892 -104.514L196.738 -105.681L202.845 -118.327L207.383 -123.569L203.399 -129.427L200.788 -141.979L195.367 -145.736L189.806 -150.077L185.585 -161.346L177.899 -160.242L179.343 -155.351L175.955 -153.883L173.665 -147.609L171.373 -138.818L173.467 -130.26L177.11 -124.205ZM101.966 -61.2871L106.586 -58.985L121.517 -60.515L114.652 -54.8913L115.073 -50.847L120.099 -51.1252L128.438 -56.5238L139.63 -58.4959L141.641 -64.6465L141.06 -71.2109L137.596 -71.8026L134.653 -69.5288L133.358 -74.4006L132.244 -81.1182L128.831 -82.7861L125.803 -77.5867L130.53 -64.5628L124.756 -65.5659L118.885 -73.5672L109.584 -78.2798L106.473 -74.3652L101.966 -61.2871ZM128.561 -110.872L124.264 -114.287L122.491 -115.063L119.101 -110.014L119.048 -107.654L124.536 -107.637L128.561 -110.872ZM126.831 -96.305L127.93 -101.002L123.269 -103.507L118.443 -101.875L115.766 -96.8519L120.669 -91.893L126.831 -96.305ZM161.131 -57.125L166.58 -58.4287L168.086 -68.1556L167.983 -75.1632L165.456 -81.717L165.201 -79.8357L160.553 -80.6596L155.576 -75.8421L152.019 -76.2783L152.229 -65.7592L157.647 -66.7824L157.578 -59.1618L161.131 -57.125ZM157.258 -3.37107L151.293 -7.99997L145.743 -12.9601L144.718 -20.2447L142.644 -30.7649L138.941 -35.2901L135.656 -37.1136L132.748 -35.4433L135.096 -24.1439L133.435 -19.7461L130.731 -30.33L127.712 -33.9899L123.977 -28.3155L119.381 -33.9263L112.027 -30.5457L113.676 -35.8063L110.299 -38.0165L101.45 -31.135L99.1496 -26.7607L96.3748 -18.7795L102.146 -16.0484L107.244 -16.1922L99.5786 -12.1126L101.322 -8.42432L106.009 -8.22512L113.07 -9.01369L119.462 -6.70455L115.147 -5.00128L110.488 -5.43976L105.386 -3.77893L103.188 -2.7487L107.26 4.74098L110.194 3.70016L114.707 6.22855L116.497 10.5321L122.377 9.67753L130.751 8.31373L136.956 5.1948L140.799 4.63018L146.484 7.12321L152.465 8.5601L153.579 5.19009L151.47 1.59611L156.897 0.835841L157.258 -3.37107ZM166.387 -4.52742L164.077 -0.355874L161.168 2.57446L165.681 6.74836L168.373 5.74173L172.828 8.52119L174.882 5.30089L172.868 1.72932L171.876 -0.069428L169.894 -1.78804L166.387 -4.52742ZM145.626 -39.233L143.114 -41.7967L138.686 -41.3288L137.562 -39.6974L142.718 -31.7385L145.626 -39.233ZM179.44 -23.7066L182.986 -31.8717L186.926 -34.05L191.864 -44.3557L185.551 -47.2672L178.665 -47.688L175.385 -44.4229L173.659 -39.4357L173.608 -33.7577L175.671 -24.1062L179.44 -23.7066ZM199.662 -50.8235L206.446 -51.0415L215.927 -52.944L220.157 -51.4411L225.086 -54.1051L227.147 -57.4527L226.409 -62.7794L222.87 -67.7643L217.499 -68.7084L210.77 -67.5662L205.516 -64.6889L200.694 -65.7958L196.236 -66.3793L194.137 -69.5642L190.345 -72.6454L191.098 -77.8707L188.246 -82.5645L181.739 -82.5327L178.069 -87.2335L171.258 -88.1753L170.014 -82.1684L173.845 -77.7541L180.682 -76.0402L184 -70.0345L184.402 -63.4312L185.545 -56.3706L194.329 -52.3429L199.662 -50.8235ZM94.7317 -72.3578L100.875 -78.3139L103.964 -79.0059L106.51 -83.9896L106.963 -95.5046L102.43 -93.2485L97.3614 -93.4607L90.5743 -83.808L84.9647 -73.2265L89.4427 -70.2679L94.7317 -72.3578ZM179.81 -53.2941L181.608 -58.1741L180.402 -62.2501L177.517 -66.8684L172.765 -63.311L171.005 -57.5069L175.012 -54.2218L179.81 -53.2941ZM170.018 -39.8129L169.158 -43.2088L163.262 -41.7189L159.32 -44.2025L155.409 -38.5398L159.051 -31.135L152.302 -32.5189L152.236 -28.9697L160.45 -20.6643L162.736 -16.6802L165.92 -15.8185L171.34 -19.8416L171.934 -29.5202L166.932 -34.3223L170.018 -39.8129ZM82.7981 141.404L81.4343 138.641L78.1351 136.555L76.5013 134.136L75.3768 132.362L72.2708 131.815L70.2422 131.028L66.7732 129.894L66.488 131.098L67.761 133.903L71.1628 134.824L71.7581 136.275L74.7156 138.045L75.7069 139.829L81.1338 142.092L82.7981 141.404ZM226.257 49.8995L223.898 47.4136L221.466 48.0006L221.172 44.3913L217.386 41.9926L213.768 39.3204L211.846 37.2541L210.155 38.4729L209.541 34.9803L207.152 34.3261L206.026 41.5564L205.604 47.5763L202.73 51.2728L207.209 50.5608L208.344 54.8632L213.047 51.0618L216.324 47.0788L218.181 50.4536L223.324 52.2346L226.257 49.8995ZM84.1796 -12.036L92.8787 -16.9619V-21.5283L96.9772 -29.0805L105.081 -36.965L109.236 -39.873L105.688 -44.8225L102.478 -48.3033L94.0362 -48.9776L89.3166 -51.5189L78.1457 -49.6035L81.3778 -42.2658L78.5111 -34.6854L76.222 -26.5922L74.804 -22.0446L82.4351 -16.5116L84.1796 -12.036ZM242.41 20.1471L242.782 18.9577L242.746 15.2152L240.165 12.7587L237.136 13.9929L235.732 18.9047L236.557 23.0998L240.262 22.6743L242.41 20.1471ZM270.486 29.0418L275.682 36.8226L279.748 40.1879L285.549 30.9113L286.578 25.0966L281.38 24.5379L276.629 16.645L271.383 14.7119L263.599 8.85596L269.667 4.57244L266.541 -4.31761L263.662 -8.27109L255.683 -12.2222L252.239 -18.763L246.101 -16.4161L245.674 -20.9696L241.121 -26.0641L233.788 -31.6207L230.662 -27.2428L224.124 -24.1051L224.615 -31.2529L218.946 -43.1016L210.57 -38.3124L207.515 -29.2349L204.912 -36.2166L207.343 -43.7263L198.809 -40.6015L195.411 -35.8971L192.871 -25.971L193.919 -15.3023L198.614 -15.2574L195.158 -10.6321L197.906 -7.14185L203.266 -5.66253L210.257 -2.81353L222.285 -0.670592L228.277 -1.90119L230.046 -4.75374L232.652 -1.46743L235.565 -0.922832L239.063 4.92958L236.946 7.26348L243.641 10.3588L248.704 14.6942L249.978 17.7L250.887 21.5179L246.612 29.6807L245.458 33.7391L246.562 36.5952L239.759 37.6077L233.548 37.7479L231.371 43.4872L234.167 46.1111L243.723 44.8958L243.67 42.6692L248.482 46.3798L253.413 50.2414L252.259 52.3313L256.264 55.8922L263.357 60.0591L272.32 62.8774L271.783 60.4151L268.341 56.0867L263.669 49.7534L271.959 55.6435L276.127 57.6002L277.266 52.369L275.115 44.9453L273.753 42.9073L269.267 39.3298L265.791 34.7198L266.208 30.0732L270.486 29.0418ZM192.889 -161.402L195.642 -152.805L201.485 -145.874L213.05 -147.157L220.491 -144.837L215.334 -137.702L212.724 -139.796L203.69 -140.635L205.093 -130.835L209.761 -123.72L208.824 -117.589L202.963 -113.509L200.286 -107.06L205.647 -103.941L210.153 -93.8638L201.317 -100.586L199.301 -99.477L200.929 -88.424L194.818 -85.0846L195.233 -78.1878L201.482 -77.4499L206.4 -75.7549L216.108 -77.9297L224.745 -74.0764L233.576 -82.5527L233.504 -86.1113L227.857 -85.5431L227.395 -88.8919L232.012 -93.4053L233.58 -99.477L238.686 -103.99L241.826 -109.604L239.093 -117.976L241.377 -121.099L236.821 -123.323L246.827 -125.242L248.934 -128.951L255.752 -132.021L261.404 -147.902L266.789 -153.728L274.588 -166.841L267.393 -166.725L270.381 -171.797L278.378 -176.504L286.441 -186.998L286.586 -193.753L280.538 -200.875L273.441 -204.329L264.608 -206.473L257.45 -208.228L250.292 -210L240.75 -205.312L238.994 -208.291L228.892 -207.14L222.965 -204.11L218.603 -199.807L216.088 -185.964L212.519 -193.017L208.421 -194.363L203.562 -184.968L197.078 -181.022L193.219 -180.239L188.304 -175.716L189.028 -167.883L192.889 -161.402ZM280.588 150.97L279.43 148.632L278.182 150.119L279.008 151.723L283.2 153.743L284.424 153.434L286.05 151.482L282.985 151.613L280.588 150.97ZM213.4 59.1856L214.123 61.107L216.456 61.2696L220.325 57.3362L220.396 55.9359L215.856 55.8663L213.4 59.1856ZM286.632 137.501L283.253 135.38L278.907 134.099L277.763 134.529L280.836 136.933L285.12 138.516L286.729 138.426L286.632 137.501ZM315.971 143.153L315.55 140.518L313.238 141.371L314.261 137.701L310.965 136.144L309.441 137.378L306.508 135.989L307.668 134.21L305.448 133.11L303.291 134.842L305.478 130.333L307.242 127.032L307.881 125.598L306.348 125.366L303.48 127.189L301.431 130.17L298.016 138.324L295.242 141.339L296.68 142.687L294.621 144.424L295.127 145.875L301.542 146.023L305.094 145.731L308.264 146.915L305.931 149.193L307.903 149.36L311.737 145.145L312.658 145.767L311.941 149.736L314.113 150.644L315.609 150.466L317 146.206L315.971 143.153ZM227.731 64.9555L229.025 61.2732L228.185 59.8198L226.831 59.6642L225.556 61.7906L225.402 62.2775L226.269 64.365L227.731 64.9555Z" stroke="#627279" stroke-width="2"/>
</g>
<defs>
<clipPath id="clip0_153_3598">
<rect width="254" height="254" fill="white"/>
</clipPath>
</defs>
</svg>
