<svg width="254" height="254" viewBox="0 0 254 254" fill="none" xmlns="http://www.w3.org/2000/svg">
<g clip-path="url(#clip0_153_3570)">
<rect width="254" height="254" rx="20" fill="#384044"/>
<path opacity="0.92" d="M174.499 187.815L170.386 190.212L166.484 188.668L166.346 184.364L168.692 182.088L173.892 180.678L176.628 180.798L177.692 182.718L175.601 184.926L174.499 187.815ZM256.926 5.30066L265.21 7.6415L270.848 12.7934L272.774 19.49L280.007 19.4985L284.134 16.7027L292 14.5995L289.498 20.9838L287.649 23.5504L286.018 31.1246L282.816 37.7245L277.042 36.5312L272.956 38.9077L274.21 44.6062L273.524 52.3349L271.094 52.5097L271.122 55.7842L268.048 51.975L266.157 55.5906L258.807 58.3491L259.551 61.7016L255.436 61.4708L253.177 59.4814L249.905 63.9695L244.66 67.3373L240.785 71.3214L234.131 73.1156L230.627 75.9827L225.5 77.648L228.03 74.8165L227.033 72.4213L230.804 68.2557L228.289 64.9795L224.141 67.1897L218.768 71.5081L215.835 75.4802L211.167 75.7739L208.738 78.6189L211.248 82.7082L215.142 83.6961L215.304 86.3833L219.069 88.1232L224.404 83.8574L228.629 86.1897L231.707 86.3476L232.479 89.4642L225.74 91.1176L223.514 94.2953L218.885 97.2286L216.443 101.291L221.567 104.455L223.438 110.068L226.334 115.239L229.566 119.532L229.488 123.65L226.5 125.156L227.639 128.084L230.44 129.781L229.709 134.21L228.5 138.485L225.84 138.967L222.365 144.75L218.51 151.686L214.09 157.926L207.546 162.709L200.926 167.043L195.563 167.632L192.654 169.907L191.007 168.245L188.315 170.788L181.663 173.341L176.626 174.12L175.002 179.469L172.364 179.764L171.116 176.094L172.243 174.13L165.857 172.502L163.608 173.331L158.816 172.01L156.55 169.936L157.302 166.985L152.951 166.047L150.656 164.115L146.599 166.857L141.972 167.449L138.176 167.422L135.621 168.673L133.155 169.423L133.875 175.251L131.337 175.111L130.909 173.918L130.765 171.813L127.273 173.297L125.212 172.36L121.678 170.445L123.063 166.189L120.05 165.193L118.915 160.438L113.89 161.297L114.462 155.127L118.969 150.747L119.161 146.391L119.02 142.321L116.942 141.048L115.352 137.89L112.566 138.289L107.435 137.485L109.042 135.22L106.812 131.849L103.418 134.134L99.4257 132.801L93.9394 136.247L89.6074 140.245L85.7677 140.915L83.6832 139.474L81.1709 139.343L77.7691 138.101L75.1974 139.464L72.0503 143.438L71.6513 139.226L68.7486 140.355L63.1978 139.831L57.8133 138.6L53.9515 136.235L50.2527 135.171L48.6553 132.569L45.9818 131.79L41.1761 128.235L37.3602 126.549L35.3877 127.862L28.7742 124.017L24.0976 120.511L22.7634 114.351L26.1788 115.107L26.3349 112.231L24.4422 109.332L24.9243 104.674L19.8081 97.9025L11.9809 95.5429L10.572 91.0259L7.05646 88.2641L6.20937 86.5547L5.4948 83.1393L5.66109 80.7951L2.77024 79.4167L1.20692 80.0261L0 74.3837L1.35456 72.9764L0.697689 71.5336L5.24189 68.6037L8.53162 67.3849L13.5697 68.22L15.3708 64.2241L21.4767 63.4773L23.1725 60.9683L30.6738 57.5207L31.3426 56.0728L30.9623 52.3977L34.2283 50.7087L29.9438 39.2438L39.3735 36.5584L41.811 35.0544L45.2433 22.7271L54.6866 25.0238L57.3347 21.8665L57.5621 14.7608L61.5155 14.0903L65.138 9.28466L67.0019 8.68715L68.2512 13.7287L72.2505 17.5141L79.0389 20.1707L82.3235 25.8047L80.4918 33.8304L82.2047 36.7654L87.8607 37.9163L94.2704 38.8534L100.022 43.0088L102.962 43.7439L105.129 49.8005L107.923 53.6521L113.17 53.5028L122.994 54.949L129.324 54.0528L134.022 55.0118L141.064 58.9008L146.823 58.8957L148.93 60.8716L154.472 57.4528L162.16 55.2257L169.293 54.9813L174.854 52.7117L178.269 49.2302L181.602 47.0285L180.831 44.8557L179.31 42.3111L181.81 38.0029L184.487 38.6106L189.379 39.9686L194.122 36.4022L201.379 33.7779L204.867 29.2591L208.218 27.2968L215.131 26.3785L218.887 27.1576L219.408 24.6912L215.095 19.7905L211.276 17.5277L207.617 20.1385L202.922 19.0402L200.228 19.9364L199.001 17.0405L202.364 9.86351L204.681 4.35172L210.393 7.12207L217.101 2.4726L217.057 -0.801845L221.354 -8.82253L224.002 -11.2839L223.942 -15.565L221.331 -17.4238L225.261 -21.3501L231.175 -22.7844L237.487 -23L244.609 -20.6337L248.789 -17.7293L251.73 -9.90216L253.514 -6.61409L255.173 -1.97825L256.926 5.30066Z" stroke="#627279" stroke-width="2"/>
</g>
<defs>
<clipPath id="clip0_153_3570">
<rect width="254" height="254" fill="white"/>
</clipPath>
</defs>
</svg>
