<svg xmlns="http://www.w3.org/2000/svg" width="31" height="29" viewBox="0 0 31 29" fill="none">
    <path d="M17.7703 20.6418L12.6613 22.8376V22.618C11.6762 22.8673 10.5849 23.011 9.55132 23.0572C4.7466 23.011 0.932941 20.5252 0.888558 17.5671V16.469C2.46664 18.7375 5.67909 20.2575 9.55132 20.2026C10.8613 20.2575 12.2014 20.0525 13.3275 19.7633L13.7717 18.6652C12.4362 19.0592 10.9784 19.3332 9.55132 19.3241C4.7466 19.3332 0.932941 16.8474 0.888558 13.8344V12.9559C2.46664 15.0529 5.67222 16.5733 9.55132 16.4694C11.2964 16.5733 13.0031 16.2105 14.4379 15.591L14.6603 14.4928C13.2584 15.224 11.4414 15.6486 9.55132 15.591C4.7466 15.6486 0.932941 13.1627 0.888558 10.1013V9.2228C2.46664 11.3687 5.67909 12.8887 9.55132 12.9559C11.7521 12.8887 13.8385 12.3135 15.5489 11.4186L15.7712 10.1008C14.2188 11.2383 11.9525 11.9713 9.55132 12.0774C4.7466 11.9713 0.933398 9.48497 0.888558 6.36816C0.932941 3.4037 4.7466 0.917842 9.55132 0.878492C12.4156 0.917842 15.0758 1.91072 16.6598 3.51351L16.814 3.76745L17.9341 3.77203L17.7703 3.51351C16.1949 1.39689 13.0442 0 9.55132 0C4.23507 0 0 2.89674 0 6.36816V17.7867C0.18668 21.1753 4.3252 23.9353 9.55132 23.9353C13.0031 23.9353 16.1052 22.5933 17.7703 20.6418Z" fill="white"/>
    <path d="M15.4294 28.4294L17.223 20.894L12.0669 23.1104L15.2057 10.0346H9.15234L10.7217 3.60742H30.001L28.4316 10.0346H22.1549L20.8098 13.5806L27.759 10.6994L15.4294 28.4294ZM18.5682 19.3425L17.6714 23.7752L25.0691 12.6943L19.0162 15.3541L21.7066 9.14833H27.759L28.88 4.49415H11.3943L10.2733 9.14833H16.3262L13.4117 21.5593L18.5682 19.3434V19.3425Z" fill="#FABF2C"/>
</svg>
