<svg width="49" height="48" viewBox="0 0 49 48" fill="none" xmlns="http://www.w3.org/2000/svg">
<path d="M36.778 13.0157C34.4884 11.9445 32.0403 11.166 29.4809 10.7227C29.1666 11.2909 28.7994 12.0553 28.5462 12.6634C25.8255 12.2542 23.1297 12.2542 20.4591 12.6634C20.2059 12.0553 19.8304 11.2909 19.5132 10.7227C16.951 11.166 14.5001 11.9473 12.2106 13.0214C7.59254 19.9998 6.34067 26.805 6.96661 33.5135C10.0295 35.8008 12.9979 37.1903 15.9161 38.0995C16.6367 37.1078 17.2793 36.0537 17.8329 34.9427C16.7785 34.5421 15.7687 34.0477 14.8145 33.4737C15.0676 33.2862 15.3153 33.0901 15.5545 32.8884C21.3743 35.6104 27.6977 35.6104 33.448 32.8884C33.69 33.0901 33.9376 33.2862 34.188 33.4737C33.231 34.0505 32.2184 34.5449 31.164 34.9456C31.7176 36.0537 32.3575 37.1107 33.0808 38.1023C36.0018 37.1931 38.9729 35.8036 42.0359 33.5135C42.7703 25.7366 40.7812 18.994 36.778 13.0157Z" stroke="" stroke-width="2"/>
<path d="M15.4453 25.7713C15.4453 27.7574 16.878 29.3884 18.6251 29.3884C20.4027 29.3884 21.8048 27.7574 21.8048 25.7713C21.8354 23.7823 20.4027 22.1514 18.6251 22.1514C16.8474 22.1514 15.4453 23.7852 15.4453 25.7713Z" fill=""/>
<path d="M27.1963 25.7713C27.1963 27.7574 28.629 29.3884 30.3761 29.3884C32.1537 29.3884 33.5558 27.7574 33.5558 25.7713C33.5864 23.7823 32.1537 22.1514 30.3761 22.1514C28.5984 22.1514 27.1963 23.7852 27.1963 25.7713Z" fill=""/>
</svg>
