<svg width="254" height="254" viewBox="0 0 254 254" fill="none" xmlns="http://www.w3.org/2000/svg">
<g clip-path="url(#clip0_153_3609)">
<rect width="254" height="254" rx="20" fill="#384044"/>
<path opacity="0.92" d="M143.401 -34L143.711 -22.3703L161.289 -15.4111L161.103 -4.88547L178.78 -10.4429L188.561 -18.5929L208.199 -6.85783L216.404 2.52656L220.473 17.369L215.623 25.085L221.937 35.3128L226.242 50.5028L224.883 60.1972L232.01 77.9613L224.251 80.8392L219.667 77.6698L215.307 82.9171L202.815 88.2389L196.358 95.0492L183.717 100.966L186.763 109.005L188.605 120.324L197.481 126.732L207.299 138.119L201.165 150.22L194.919 153.532L197.381 170.403L195.763 174.77L190.342 169.504L181.999 168.716L169.569 173.331L154.231 172.233L151.756 179L142.955 171.879L137.707 173.294L119.069 165.423L115.496 171.024L100.703 170.844L102.911 152.391L111.706 134.404L86.6482 129.529L78.4423 122.563L79.4223 110.81L75.9489 104.713L77.9214 86.3036L75 57.2139L85.4512 57.2016L89.8549 46.5889L94.1905 20.3835L90.9405 10.5649L94.3393 4.37474L108.872 2.78077L112.097 9.23142L123.907 -5.23906L119.931 -16.3601L119.131 -33.386L132.274 -29.404L143.401 -34Z" stroke="#627279" stroke-width="2"/>
</g>
<defs>
<clipPath id="clip0_153_3609">
<rect width="254" height="254" fill="white"/>
</clipPath>
</defs>
</svg>
