<svg width="107" height="41" viewBox="0 0 107 41" fill="none" xmlns="http://www.w3.org/2000/svg">
<path fill-rule="evenodd" clip-rule="evenodd" d="M48.9096 15.5708V18.6913H56.6317V21.9473H48.9056V25.3448H56.7945V28.5978H45.3169V12.3188H56.7985V15.5708H48.9096ZM64.5322 22.8458H62.5298V28.5988H58.936V12.3188H66.1733C69.3436 12.3188 71.6705 14.3723 71.6705 17.5843C71.6705 18.8668 71.2962 20.0973 70.4202 21.0593C69.8374 21.6922 69.0924 22.155 68.2651 22.3978L72.1397 28.5978H67.9672L64.5322 22.8458ZM62.5298 15.5708V19.5933H65.8021C67.0364 19.5933 68.0084 18.8648 68.0084 17.5828C68.0084 16.3003 67.0364 15.5708 65.8021 15.5708H62.5298ZM84.829 24.4748V22.7068H80.2129V19.4538H88.4228V25.8333L88.3093 25.9583C86.5566 27.8883 84.2151 28.8963 81.6029 28.8963C76.7171 28.8963 73.0429 25.3768 73.0429 20.4683C73.0429 15.5593 76.7201 12.0643 81.6029 12.0643C84.3608 12.0643 86.6219 13.2168 88.2043 15.4608L88.4826 15.8508L85.4856 17.5288L85.2575 17.2038C84.8414 16.6257 84.2929 16.1546 83.6573 15.8297C83.0217 15.5049 82.3174 15.3355 81.6029 15.3358C78.6637 15.3358 76.7045 17.6033 76.7045 20.4633C76.7045 23.3233 78.6572 25.6148 81.6029 25.6148C82.6925 25.6148 83.975 25.1858 84.829 24.4698V24.4748ZM89.9112 20.4678C89.9112 15.6343 93.3764 12.0643 98.2623 12.0643C103.148 12.0643 106.612 15.6343 106.612 20.4683C106.612 25.3018 103.147 28.8708 98.2623 28.8708C93.3774 28.8708 89.9112 25.3023 89.9112 20.4678ZM102.95 20.4678C102.95 17.6468 101.234 15.3408 98.2623 15.3408C95.2909 15.3408 93.5733 17.6358 93.5733 20.4683C93.5733 23.2998 95.2889 25.5973 98.2623 25.5973C101.236 25.5973 102.95 23.2788 102.95 20.4678ZM19.2867 25.7678H27.2595V29.4558H13.9297V26.1048L19.1752 20.3248L13.9548 14.9098V11.5488H27.2595V15.2358H19.456L24.2951 20.2793L19.2867 25.7678Z" fill="white"/>
<path d="M20.5964 3.731L32.5115 8.6425L37.4466 20.5025L32.5115 32.3625L20.5959 37.275L8.68067 32.362L3.74511 20.502L8.68067 8.6425L20.5964 3.731ZM20.5964 0C20.3844 0 20.1744 0.0415 19.9785 0.122L6.55675 5.657C6.36103 5.73758 6.18319 5.85576 6.03338 6.00478C5.88357 6.1538 5.76474 6.33075 5.68367 6.5255L0.122682 19.8855C-0.040894 20.2788 -0.040894 20.7207 0.122682 21.114L5.68367 34.4735C5.7646 34.6683 5.88338 34.8454 6.03321 34.9944C6.18303 35.1434 6.36095 35.2616 6.55675 35.342L19.979 40.877C20.1745 40.9582 20.3842 41 20.5961 41C20.808 41 21.0177 40.9582 21.2132 40.877L34.636 35.342C34.8316 35.2614 35.0094 35.1432 35.1591 34.9942C35.3088 34.8452 35.4275 34.6682 35.5085 34.4735L41.0695 21.1135C41.2331 20.7202 41.2331 20.2783 41.0695 19.885L35.5085 6.5255C35.3445 6.13236 35.0305 5.82002 34.6355 5.657L21.2132 0.122C21.0176 0.0417262 20.808 0.00028301 20.5964 0Z" fill="white"/>
</svg>
