<svg width="60" height="60" viewBox="0 0 60 60" fill="none" xmlns="http://www.w3.org/2000/svg">
<path d="M30 56H24C16.4575 56 12.6863 56 10.3431 53.6569C8 51.3137 8 47.5425 8 40V21C8 13.4575 8 9.68629 10.3431 7.34315C12.6863 5 16.4575 5 24 5H33C40.5425 5 44.3137 5 46.6569 7.34315C49 9.68629 49 13.4575 49 21V33.5" stroke="white" stroke-width="2.5" stroke-linecap="round"/>
<path d="M17 15H40" stroke="white" stroke-width="2.5" stroke-linecap="round" stroke-linejoin="round"/>
<path d="M17 22H40" stroke="white" stroke-width="2.5" stroke-linecap="round" stroke-linejoin="round"/>
<path d="M17 29H40" stroke="white" stroke-width="2.5" stroke-linecap="round" stroke-linejoin="round"/>
<path d="M43 38L43.9408 38.0493L44.8712 38.1967L45.7812 38.4405L46.6606 38.7781L47.5 39.2058L48.2901 39.7188L49.0222 40.3117L49.6883 40.9778L50.2812 41.7099L50.7942 42.5L51.2219 43.3394L51.5595 44.2188L51.8033 45.1288L51.9507 46.0592L52 47L51.9507 47.9408L51.8033 48.8712L51.5595 49.7812L51.2219 50.6606L50.7942 51.5L50.2812 52.2901L49.6883 53.0222L49.0222 53.6883L48.2901 54.2812L47.5 54.7942L46.6606 55.2219L45.7812 55.5595L44.8712 55.8033L43.9408 55.9507L43 56L42.0592 55.9507L41.1288 55.8033L40.2188 55.5595L39.3394 55.2219L38.5 54.7942L37.7099 54.2812L36.9778 53.6883L36.3117 53.0222L35.7188 52.2901L35.2058 51.5L34.7781 50.6606L34.4405 49.7812L34.1967 48.8712L34.0493 47.9408L34 47L34.0493 46.0592L34.1967 45.1288L34.4405 44.2188L34.7781 43.3394L35.2058 42.5L35.7188 41.7099L36.3117 40.9778L36.9778 40.3117L37.7099 39.7188L38.5 39.2058L39.3394 38.7781L40.2188 38.4405L41.1288 38.1967L42.0592 38.0493L43 38Z" stroke="#CE4E17" stroke-width="2.5" stroke-linecap="round"/>
</svg>
