<svg width="254" height="254" viewBox="0 0 254 254" fill="none" xmlns="http://www.w3.org/2000/svg">
<g clip-path="url(#clip0_153_3620)">
<rect width="254" height="254" rx="20" fill="#384044"/>
<path opacity="0.92" d="M138.167 -9.73572L135.216 5.93196L143.567 8.65813L147.226 15.6987L148.692 22.1004L155.422 24.4985L155.94 27.8982L149.935 32.4706L143.292 32.885V37.9235L147.899 45.9471L141.255 53.7465L147.968 55.9034L161.634 42.5996L169.899 30.3827V22.1004L167.018 16.3543L159.115 12.4027L160.927 3.41275L159.115 -4.49034L166.293 -21.7457L173.402 -30.7357L193.487 -38L233.693 -35.7051L242.734 -8.38975L230.673 64.5137L218.421 94.0381L189.346 94.0724L197.474 175L170.883 157.123L140.255 123.372L95.4254 139.437L60 133.363L72.1132 111.983L87.9362 91.1219L110.006 69.57L123.068 33.4717L127.296 -4.17965L138.167 -9.73572Z" stroke="#627279" stroke-width="2"/>
</g>
<defs>
<clipPath id="clip0_153_3620">
<rect width="254" height="254" fill="white"/>
</clipPath>
</defs>
</svg>
