<svg width="49" height="48" viewBox="0 0 49 48" fill="none" xmlns="http://www.w3.org/2000/svg">
<path d="M18.1933 25.5215C17.3653 25.5215 16.6933 26.1935 16.6993 27.0215C16.6993 27.8495 17.3713 28.5215 18.1993 28.5215C19.0273 28.5215 19.6993 27.8495 19.6993 27.0215C19.6993 26.1935 19.0273 25.5215 18.1933 25.5215Z" fill=""/>
<path d="M30.7401 25.5215C29.9121 25.5215 29.2401 26.1935 29.2461 27.0215C29.2461 27.8495 29.9181 28.5215 30.7461 28.5215C31.5741 28.5215 32.2461 27.8495 32.2461 27.0215C32.2461 26.1935 31.5741 25.5215 30.7401 25.5215Z" fill=""/>
<path d="M36.6091 10.5024C36.9011 10.2084 36.8991 9.73438 36.6071 9.44238C36.3131 9.15038 35.8391 9.15038 35.5471 9.44438C35.2551 9.73838 35.2551 10.2124 35.5471 10.5044C35.8391 10.7964 36.3151 10.7964 36.6091 10.5024" stroke="" stroke-width="2" stroke-linecap="round" stroke-linejoin="round"/>
<path d="M31.0696 32.8184C29.1416 33.5244 26.9416 33.9444 24.5016 33.9444C22.0616 33.9444 19.8616 33.5244 17.9336 32.8184" stroke="" stroke-width="2" stroke-linecap="round" stroke-linejoin="round"/>
<path d="M8.03189 27.6285C7.68989 27.4525 7.36189 27.2525 7.07989 26.9885C5.43589 25.4405 5.35589 22.8545 6.90389 21.2105C8.43389 19.5845 10.9799 19.4945 12.6279 20.9925C15.6259 18.8445 19.8099 17.4805 24.4999 17.4805C29.1899 17.4805 33.3739 18.8445 36.3719 20.9905C38.0179 19.4925 40.5639 19.5825 42.0959 21.2085C43.6439 22.8525 43.5639 25.4405 41.9199 26.9865C41.6399 27.2505 41.3099 27.4525 40.9679 27.6265C41.0479 28.0785 41.1019 28.5345 41.1019 28.9965C41.1019 35.1805 33.7819 40.5145 24.4999 40.5145C15.2179 40.5145 7.89789 35.1805 7.89789 28.9965C7.89789 28.5345 7.95189 28.0785 8.03189 27.6285Z" stroke="" stroke-width="2" stroke-linecap="round" stroke-linejoin="round"/>
<path d="M24.5 17.4802L25.758 11.8702C26.234 9.74815 28.316 8.39615 30.448 8.82415L35.358 9.80815" stroke="" stroke-width="2" stroke-linecap="round" stroke-linejoin="round"/>
</svg>
