<svg width="254" height="254" viewBox="0 0 254 254" fill="none" xmlns="http://www.w3.org/2000/svg">
<g clip-path="url(#clip0_153_3542)">
<rect width="254" height="254" rx="20" fill="#384044"/>
<path d="M281 73.0041L279.301 74.8143L276.493 75.2393L276.451 79.1745L275.765 79.9947L274.161 79.8772L272.854 78.4987L270.577 77.3314L270.193 75.5718L268.453 74.9008L266.505 75.4335L265.575 73.9911L265.947 72.4372L263.895 73.4327L264.668 75.3775L263.696 77.1025L263.683 77.1244L261.481 78.8811L259.26 78.59L260.806 80.6858L261.825 83.8527L262.617 84.8683L262.815 86.41L262.373 87.3854L259.18 86.5835L254.391 89.3302L252.868 89.7491L250.247 92.2432L247.76 94.3773L247.13 95.9318L244.68 93.5571L240.215 96.2478L239.436 94.9825L237.786 96.4402L235.495 95.9757L234.943 98.1865L232.888 101.364L232.949 102.665L234.9 103.38L234.67 107.921L233.08 108.034L232.346 110.563L233.059 111.845L230.063 113.347L229.469 116.638L226.914 117.329L226.401 120.168L223.931 122.715L223.298 120.837L222.564 116.761L221.609 110.278L222.432 106.044L223.877 104.174L223.967 102.688L226.629 101.97L229.689 97.8407L232.638 94.3536L235.718 91.5709L237.095 86.477L235.014 86.7881L233.984 89.7851L229.639 93.6582L228.236 89.312L223.813 90.5291L219.525 96.3501L220.94 98.4063L217.116 99.2703L214.467 99.6095L214.591 97.2068L211.928 96.696L209.806 98.3412L204.567 97.7682L198.932 98.7546L193.382 105.044L186.816 112.215L189.515 112.587L190.358 114.414L192.022 115.056L193.119 113.608L194.998 113.798L197.471 116.959L197.53 119.348L196.191 122.095L196.046 125.302L195.273 129.471L192.691 133.133L192.117 134.848L189.792 137.686L187.484 140.443L186.377 141.834L184.094 143.201L183.013 143.23L181.937 142.099L179.638 143.799L179.37 144.565L179.13 144.163L179.119 142.988L179.994 142.925L180.241 140.153L179.79 138.108L181.26 137.257L183.339 137.685L184.492 135.317L185.079 132.6L185.744 131.68L186.645 129.39L183.813 130.145L182.328 131.148L179.724 131.145L179.031 128.742L177.002 126.894L174.02 126.055L173.386 123.446L172.789 121.783L172.147 120.604L171.088 117.796L169.584 116.755L167.02 115.906L164.748 115.983L162.619 116.498L161.205 117.906L162.145 118.573L162.166 120.108L161.213 120.991L159.666 123.868L159.682 125.043L157.267 126.711L155.211 125.717L153.167 125.937L152.27 125.05L151.242 124.762L148.733 126.625L146.478 127.058L144.903 127.705L142.745 127.281L141.157 127.308L140.117 125.967L138.439 124.693L136.722 124.341L134.555 124.69L132.935 125.183L130.502 124.062L130.175 122.039L128.161 121.338L126.606 121.017L124.687 119.878L122.912 122.715L123.608 124.298L121.942 126.146L119.465 125.482L117.755 125.387L116.61 124.143L114.823 124.104L113.333 123.279L110.727 124.541L107.458 126.817L105.652 127.27L104.981 127.484L104.072 125.881L101.865 126.233L101.137 125.111L99.9389 124.595L99.114 123.045L98.1682 122.559L95.7064 123.253L93.3466 121.691L92.4338 123.111L88.6051 116.063L86.4195 113.835L87.0458 112.919L82.7527 115.656L81.1097 115.819L81.2514 114.246L79.0505 113.253L77.2621 113.963L76.7225 110.911L73.6436 110.266L72.1032 111.504L67.8163 112.595L66.9798 113.319L60.569 114.331L59.7838 115.316L61.0205 117.27L59.3757 118.003L59.6964 118.766L58.0522 120.12L60.8287 122.006L60.3997 123.289L57.9935 123.172L57.4961 123.97L55.305 122.574L52.589 122.628L50.7706 123.765L48.7426 122.675L44.9659 120.786L42.2897 120.857L38.753 123.81L38.5398 125.754L36.7782 124.212L35.4114 127.117L35.9118 127.649L34.9232 129.606L36.3774 131.334L37.6489 131.263L38.7408 132.944L38.5673 134.224L39.4374 134.623L38.6565 136.079L36.9958 136.481L35.2928 138.97L36.8497 141.22L36.6811 142.794L38.552 145.508L37.5292 146.425L37.2353 147L36.477 146.846L35.2996 145.466L34.8181 145.389L33.7408 144.859L33.2166 143.915L31.6188 143.432L30.58 143.795L30.28 143.366L27.9471 142.251L25.4248 141.872L23.9767 141.471L23.7678 141.748L21.5833 139.755L19.6287 138.855L18.1488 137.443L19.3959 137.056L20.8177 135.014L19.8596 134.037L22.3844 133.022L22.3392 132.474L20.8012 132.878L20.855 131.763L21.7379 131.057L23.3956 130.871L23.6651 130.021L23.2863 128.604L23.9822 127.245L23.9621 126.476L21.4367 125.618L20.4352 125.646L19.3782 124.402L18.0639 124.824L15.888 123.885L15.9253 123.357L15.3161 122.184L13.9498 122.053L13.8081 121.205L14.2358 120.649L13.1408 119.081L11.3646 119.35L10.844 119.211L10.4114 119.842L9.77168 119.73L9.35067 117.942L8.94861 117.004L9.27858 116.739L10.6607 116.838L11.3273 116.216L10.8336 115.453L9.67819 114.946L9.78145 114.424L9.08428 113.895L8.01011 111.975L8.37731 111.175L8.20989 109.769L6.5351 109.049L5.63628 109.41L5.39309 108.658L3.58934 107.893L3.03881 106.073L2.8928 104.556L2.0673 103.828L2.80113 102.818L2.29275 99.797L3.51177 97.8894L3.25388 97.3055L5.20122 95.4356L3.40604 93.8013L7.074 89.2925L8.6651 87.19L9.30973 85.3L6.77401 82.7086L7.47424 80.1847L5.93202 77.2291L7.08563 73.7195L5.09306 68.8746L6.6738 65.5391L4.05007 62.5007L4.29997 59.2103L5.68395 58.7694L8.59913 56.8283L10.3668 55.1155L13.1812 58.0747L17.8726 59.217L24.3458 64.4814L25.6607 66.6174L25.7737 69.5377L23.8716 71.7875L21.0744 72.9115L13.4262 69.6765L12.1681 70.2245L14.9611 73.328L15.0705 75.2484L15.1823 79.3603L17.388 80.5573L18.7268 81.5663L18.948 79.6745L17.916 77.969L19.0066 76.4437L23.1482 78.9395L24.5908 77.9696L23.4378 75L27.4308 70.8949L29.0121 71.1409L30.6118 72.6205L31.6096 69.6911L30.181 67.0832L31.0199 64.4004L29.7606 61.5435L34.5529 63.0304L35.5318 65.5774L33.3626 66.1303L33.3742 68.589L34.7227 70.0735L37.3697 69.1352L37.7888 66.3276L41.3676 64.1813L47.3465 60.1973L48.6381 60.4299L46.9493 63.2551L49.0744 63.7331L50.302 62.1597L53.5129 62.0313L56.0572 60.0871L58.0094 62.9008L59.9561 59.8033L58.1609 57.0164L59.0518 55.395L64.1123 56.8825L66.4837 58.3974L72.6922 63.755L73.8379 61.3347L72.0965 58.8315L72.0464 57.8104L69.9818 57.3343L70.5469 55.0041L69.6304 51.0518L69.5785 49.3852L72.7405 44.5202L73.8648 39.394L75.1388 38.2505L79.6744 39.7812L80.0318 42.9371L78.4077 47.3716L79.4734 49.0637L80.0245 52.6793L79.6353 59.4216L81.5252 62.3016L80.7901 65.3509L77.4344 71.5604L79.3927 72.1839L80.074 70.6531L81.959 69.548L82.4136 67.3846L83.8966 65.2602L82.8981 62.6663L83.698 59.5713L81.8246 59.1792L81.4128 56.4891L82.7796 51.4487L80.5543 47.1664L83.6204 43.4875L83.2244 39.4573L84.0786 39.3258L84.9787 42.4853L84.3035 47.7625L86.1366 48.7319L85.3557 44.8514L88.2226 42.6722L91.7781 42.3751L94.9439 45.5291L93.4205 40.8882L93.2501 34.6276L96.2294 33.397L100.35 33.6673L104.062 32.863L102.67 29.5866L104.653 25.3146L106.621 25.1319L109.952 21.7751L114.476 20.8533L115.048 18.9334L119.546 18.2746L120.948 19.8614L124.793 16.0637L127.94 16.1849L128.412 12.9955L130.049 9.74772L134.094 6.5133L137.032 9.0755L134.699 10.9819L138.581 12.1492L139.043 15.8232L140.609 14.0313L145.617 14.1305L149.479 17.6882L150.854 20.3375L150.428 23.902L148.532 25.876L144.03 29.4788L142.743 31.3536L144.868 32.2261L147.402 33.78L148.944 32.617L149.818 36.5096L150.571 34.9515L153.31 33.9925L158.807 34.9947L159.225 37.781L166.387 38.6517L166.485 34.1015L170.12 35.1622L172.856 35.1293L175.622 38.2578L176.411 41.9342L175.397 44.2699L177.548 48.5212L180.243 50.6481L181.896 45.0597L184.644 47.4928L187.564 46.0461L190.88 47.6998L192.142 46.1928L194.944 46.9491L193.708 41.8356L195.97 39.3592L211.442 43.0497L212.901 46.3103L217.386 50.3613L224.304 49.3731L227.715 50.234L229.141 52.3639L228.932 56.027L231.043 57.4189L233.336 56.4197L236.375 56.2913L239.609 57.2503L242.856 56.7102L245.84 60.9687L247.963 59.4569L246.577 56.3674L247.341 54.1644L252.806 55.5563L256.37 55.2604L261.297 57.6004L263.695 59.6949L267.892 63.2618L272.385 67.7317L272.237 70.4333L273.393 71.4958L272.996 68.3625L277.646 69.0128L281 73.0041ZM203.141 128.107L201.417 123.428L200.71 120.683L200.754 117.945L200.161 115.203L199.715 113.285L198.953 113.695L199.633 115.038L198.049 116.356L197.897 120.19L198.901 122.876L198.826 126.439L198.43 128.41L198.625 131.173L198.434 133.617L198.752 135.687L199.875 133.779L201.173 135.268L201.221 133.541L199.551 130.966L200.605 127.248L203.141 128.107ZM-6.45157 111.371L-8.24552 110.85L-10.6096 111.814L-11 113.109L-8.89018 113.441L-5.73975 113.397L-5.87721 112.649L-5.69451 111.841L-6.45157 111.371ZM263.695 50.4106L265.933 50.094L267.698 48.8366L267.845 48.1133L265.366 46.5819L263.915 46.5703L263.695 46.7962L261.511 49.0156L261.817 50.6755L263.695 50.4106ZM196.557 33.9164L194.932 36.3002L195.232 36.6156L198.743 37.2756L201.34 37.2342L201.133 35.67L198.7 33.3501L196.557 33.9164ZM211.573 28.1149L213.553 25.5283L209.254 23.7778L206.06 22.7542L205.65 24.9371L208.834 27.5352L211.573 28.1149ZM196.219 27.0834L202.534 27.2636L203.881 22.3042L197.688 18.6077L193.164 18.2959L190.904 19.6233L189.983 24.3434L193.378 28.6136L196.219 27.0834ZM45.2238 42.8823L43.472 44.0745L43.7225 47.0166L46.8234 48.4463L47.278 50.7711L52.8756 51.4421L53.8874 50.9896L50.6105 46.6629L50.2622 42.0865L52.9477 36.5194L55.5012 30.5407L60.8231 24.3495L66.0553 21.0993L72.1258 17.6042L73.277 15.3477L72.0861 12.4086L68.7518 13.3852L65.8176 16.1204L60.1156 17.4733L54.4594 21.9846L50.6277 25.546L51.0914 28.5113L46.9896 34.0089L48.5648 34.7518L45.1663 39.7879L45.2238 42.8823ZM135.334 1.51066L135.843 -1.9722L131.5 -7.05216L130.213 -7.65192L128.805 -6.61924L125.676 4.70854L135.334 1.51066ZM34.9861 -16.3377L36.8418 -13.9777L38.8441 -15.6174L39.083 -17.273L40.6234 -18.0475L42.9233 -19.4084L43.5862 -21.0061L41.045 -23.3485L39.4301 -21.5809L38.4463 -19.0692L38.0962 -21.8999L35.4932 -21.7715L32.1485 -19.8522L35.9613 -19.535L34.9861 -16.3377ZM115.182 -8.39415L118.025 -4.90521L122.797 -2.34666L126.535 -3.44449L126.958 -11.7394L123.013 -21.506L119.684 -27L115.978 -24.4981L111.53 -17.2925L113.867 -15.3014L115.182 -8.39415Z" stroke="#627279" stroke-width="2"/>
</g>
<defs>
<clipPath id="clip0_153_3542">
<rect width="254" height="254" fill="white"/>
</clipPath>
</defs>
</svg>
