<svg width="254" height="254" viewBox="0 0 254 254" fill="none" xmlns="http://www.w3.org/2000/svg">
<g clip-path="url(#clip0_153_3579)">
<rect width="254" height="254" rx="20" fill="#384044"/>
<path opacity="0.92" d="M127.306 100.85L119.644 117.608L108.84 112.612L100 112.943L102.947 99.8354L100 86.5595L111.986 85.5297L127.306 100.85ZM165.283 -5L150.004 24.2078L164.564 20.5576L180.226 20.6951L176.499 42.1996L163.647 65.3202L178.426 66.9415L179.563 69.6129L192.294 99.1166L202.077 103.063L210.877 130.639L214.95 140.025L232.269 144.522L230.531 159.475L223.25 166.261L228.96 178.124L216.103 189.993L196.979 189.784L172.645 195.963L165.977 191.543L156.524 202.035L143.3 199.501L133.256 208L125.654 203.565L146.618 179.929L159.415 175.004L159.303 174.984L136.978 171.165L132.935 161.993L147.873 154.789L140.042 142.151L142.759 126.571L164.003 128.737H164.029L166.135 114.753L156.56 99.7028L156.346 99.3562L138.986 95.0124L135.581 88.2929L140.776 77.1022L136.075 70.138L128.377 82.0578L127.541 57.6014L120.322 44.4122L125.512 17.106L136.616 -4.87257L148.031 -2.70588L165.283 -5Z" stroke="#627279" stroke-width="2"/>
</g>
<defs>
<clipPath id="clip0_153_3579">
<rect width="254" height="254" fill="white"/>
</clipPath>
</defs>
</svg>
