<svg width="254" height="254" viewBox="0 0 254 254" fill="none" xmlns="http://www.w3.org/2000/svg">
<g clip-path="url(#clip0_153_3552)">
<rect width="254" height="254" rx="20" fill="#384044"/>
<path d="M300.358 7.31097L298.147 5.20264L294.808 6.44597L293.152 4.52235L289.353 10.0233L287.834 15.6148L286.067 18.8476L283.951 19.9417L282.358 20.2969L281.859 22.0341L272.681 22.0394L265.115 22.0873L262.868 23.3769L257.77 28.226L258.28 29.1922L258.575 31.8672L254.839 34.123L250.759 33.5582L246.844 33.3042L244.486 34.084L244.928 36.1266V36.1301L245.026 36.7927L240.734 40.8158L236.978 42.7501L234.414 43.6489L231.464 45.4873L227.858 46.3683L225.375 46.029L222.304 44.6577L224.011 42.084L225.107 39.7376L227.448 36.0236L227.199 33.2332L226.302 29.2527L224.461 28.5635L221.373 31.5919L220.384 31.535L220.128 29.805L222.867 27.0412L223.322 23.8689L222.917 20.6824L219.231 17.9257L214.999 16.5047L214.302 19.201L213.205 19.9204L212.324 23.3893L211.862 21.0359L209.871 22.7179L208.627 25.0643L207.329 28.4675L207.08 31.3894L208.732 35.6097L208.595 40.0645L206.574 43.3256L205.565 44.2457L204.221 44.9775L202.528 45.0148L202.07 44.5654L200.728 41.0574L200.689 39.3131L200.823 37.6488L200.197 34.3273L201.144 30.4534L202.268 25.6345L204.853 20.2436L204.103 20.2685L200.444 24.7854L199.769 23.9613L201.721 21.4355L204.691 16.8653L208.078 16.2241L211.963 14.796L215.88 15.5491L216.047 15.5811L220.434 14.9363L217.956 12.0784L216.62 11.8564L215.102 11.5651L214.055 9.54015L209.162 10.1725L204.743 11.78L201.235 9.02507L198.412 8.09962L200.013 4.24525L195.617 6.66978L191.62 9.02859L187.774 10.8706L184.721 8.38208L179.732 9.89362L179.748 8.82967L183.128 5.75679L186.664 2.81894L191.744 0.376633L185.618 -1.55765L181.584 -0.58963L176.753 -2.90401L171.668 -4.09763L168.19 -4.55946L166.641 -5.83476L165.756 -10L164.071 -9.96271L164.057 -7.04263L153.749 -7.04794L136.71 -7.04263H119.786H104.836H89.8942H75.2031H60.0235H55.1283H40.3431H26.199L27.8935 -0.886246L28.6893 5.17065L27.4584 7.10143L24.8047 0.154617L17.6021 -2.37648L17 -0.919968L18.4512 2.52232L20.0249 8.78348L20.9237 18.4035L20.318 24.7819L19.7123 31.0608L17.7655 37.4801L19.3553 42.6276L19.5293 48.315L18.437 53.7414L21.0906 57.2796L21.778 62.5106L25.6324 67.8232L27.8296 69.8996L27.652 71.3508L31.7994 79.9673L36.6308 86.0987L37.2365 89.4131L38.5064 90.3847L43.1335 90.9762L44.915 92.5979L47.709 92.8981L48.2543 94.6122L50.5776 95.3244L53.805 98.7347L54.6434 101.747L60.3024 101.294L66.6275 100.657L66.1604 101.808L73.6809 104.657L85.0416 108.76L94.9458 108.719L98.8943 108.717L98.905 106.317L107.532 106.319L109.347 108.383L111.894 110.216L114.854 112.754L116.506 115.754L117.745 118.897L120.319 120.614L124.454 122.316L127.591 117.826L131.662 117.714L135.172 119.985L137.671 123.865L139.392 127.167L142.33 130.359L143.426 134.257L144.82 136.861L148.705 138.572L152.241 139.783L154.183 139.618L153.236 137.744L152.987 135.089L153.037 131.25L154.183 128.735L156.902 126.055L161.852 123.623L166.385 119.419L170.575 118.087L173.673 117.687L177.297 119.007L181.639 118.296L185.357 121.302L188.972 121.479L190.84 120.403L192.689 121.241L193.638 120.495L192.581 119.373L192.661 117.06L191.764 115.54L193.823 114.644L197.62 114.248L202.039 114.882L207.668 114.161L210.791 115.58L213.208 118.248L214.1 118.532L219.125 115.939L221.068 116.817L224.951 121.58L226.345 124.691L225.322 128.422L226.07 130.611L228.386 134.868L231.025 139.62L232.917 140.884L233.702 143.289L236.153 143.954L237.642 143.263L238.883 139.911L239.1 137.767L239.256 134.034L236.898 127.557L236.869 125.126L234.656 121.124L232.993 116.248L232.112 112.259L232.882 108.147L235.228 104.692L238.036 101.902L243.503 98.0722L244.216 96.0811L246.736 93.8928L249.223 93.5109L252.496 89.994L257.649 88.2071L260.814 83.7061L260.115 77.5693L259.598 75.429L258.168 75.0009L257.955 69.0576L254.527 67.0275L257.818 68.0168L256.756 64.0026L257.715 61.2459L258.299 66.5284L260.843 68.9369L259.303 73.1963L259.756 73.4432L262.559 68.4431L264.155 65.9901L264.081 63.5923L262.845 62.4573L261.809 59.0096L263.443 60.6135L264.537 60.9475L264.907 62.5887L268.53 57.6526L269.605 52.9953L268.14 52.6969L269.656 50.8852L269.509 51.688L272.681 51.6756L279.653 49.7111L278.177 48.4642L270.862 49.7022L275.013 47.7964L277.909 47.4695L280.076 47.1391L283.76 45.9846L286.152 46.1143L289.515 45.0397L289.912 43.1391L288.419 41.656L288.941 44.0929L286.873 43.926L285.23 40.3824L285.28 36.8069L286.124 35.2811L288.76 31.226L294.019 29.1905L299.136 26.8033L304.454 23.4284L303.595 21.1282L300.339 17.1299L300.358 7.31097Z" stroke="#627279" stroke-width="2"/>
</g>
<defs>
<clipPath id="clip0_153_3552">
<rect width="254" height="254" fill="white"/>
</clipPath>
</defs>
</svg>
