<svg width="60" height="60" viewBox="0 0 60 60" fill="none" xmlns="http://www.w3.org/2000/svg">
<path d="M45 14L46.1326 15.1326C46.8647 15.8647 48.0689 15.8047 48.7245 15.0034L52 11" stroke="white" stroke-width="2.5" stroke-linecap="round"/>
<circle cx="31" cy="28" r="6" stroke="#CE4E17" stroke-width="2.5"/>
<path d="M51 24.9502V31.4434C51 39.3946 51 43.3701 49.1904 46.2802C48.2184 47.8433 46.8999 49.1618 45.3368 50.1338C42.4268 51.9434 38.4512 51.9434 30.5 51.9434V51.9434C22.5488 51.9434 18.5732 51.9434 15.6632 50.1338C14.1001 49.1618 12.7816 47.8433 11.8096 46.2802C10 43.3701 10 39.3945 10 31.4434V31.4434C10 23.4922 10 19.5166 11.8096 16.6065C12.7816 15.0435 14.1001 13.7249 15.6632 12.7529C18.5732 10.9434 22.5488 10.9434 30.5 10.9434H36.1702" stroke="white" stroke-width="2.5" stroke-linecap="round"/>
<path d="M21 41.5102C24.1056 40.5345 27.4768 40 31 40C34.5232 40 37.8944 40.5345 41 41.5102" stroke="white" stroke-width="2.5" stroke-linecap="round"/>
</svg>
