<svg width="49" height="48" viewBox="0 0 49 48" fill="none" xmlns="http://www.w3.org/2000/svg">
<path d="M43.666 12.7457C43.208 10.7377 41.852 9.15374 40.128 8.60974C37.01 7.63574 24.5 7.63574 24.5 7.63574C24.5 7.63574 11.996 7.63574 8.872 8.60974C7.154 9.14574 5.798 10.7297 5.334 12.7457C4.5 16.3897 4.5 23.9997 4.5 23.9997C4.5 23.9997 4.5 31.6097 5.334 35.2537C5.792 37.2617 7.148 38.8457 8.872 39.3897C11.996 40.3637 24.5 40.3637 24.5 40.3637C24.5 40.3637 37.01 40.3637 40.128 39.3897C41.846 38.8537 43.202 37.2697 43.666 35.2537C44.5 31.6097 44.5 23.9997 44.5 23.9997C44.5 23.9997 44.5 16.3897 43.666 12.7457Z" stroke="" stroke-width="2" stroke-linecap="round" stroke-linejoin="round"/>
<path d="M20.5039 30L30.8959 24L20.5039 18V30Z" stroke="" stroke-width="1.5" stroke-linecap="round" stroke-linejoin="round"/>
</svg>
